<?xml version="1.0" standalone="no"?>
<!DOCTYPE svg PUBLIC "-//W3C//DTD SVG 20010904//EN"
 "http://www.w3.org/TR/2001/REC-SVG-20010904/DTD/svg10.dtd">
<svg version="1.0" xmlns="http://www.w3.org/2000/svg"
 width="1024.000000pt" height="1024.000000pt" viewBox="0 0 1024.000000 1024.000000"
 preserveAspectRatio="xMidYMid meet">
<metadata>
Created by potrace 1.16, written by Peter Selinger 2001-2019
</metadata>
<g transform="translate(0.000000,1024.000000) scale(0.100000,-0.100000)"
fill="#000000" stroke="none">
<path d="M1930 6360 l0 -3130 3190 0 3190 0 0 3130 0 3130 -3190 0 -3190 0 0
-3130z m6243 2977 c-2 -4 -3 -1349 -3 -2989 l0 -2983 -3050 3 -3050 2 -1 48
c0 42 0 5823 1 5897 l0 30 3053 -1 c1678 0 3051 -4 3050 -7z"/>
<path d="M2178 9262 l-28 -3 0 -2905 0 -2904 2970 0 2970 0 0 2908 0 2907
-2943 0 c-1618 0 -2954 -1 -2969 -3z m1607 -93 c-22 -5 -93 -23 -158 -40
l-117 -31 -73 37 c-39 21 -75 40 -79 44 -4 3 100 4 230 2 168 -2 225 -6 197
-12z m3080 -7 c-16 -10 -52 -28 -79 -41 l-50 -23 -160 40 -161 40 240 1 c235
1 239 1 210 -17z m611 7 l169 -1 -39 -31 c-35 -29 -48 -33 -120 -37 -79 -5
-82 -4 -131 29 -48 34 -82 61 -59 48 6 -4 87 -7 180 -8z m-4946 -26 c43 -19
120 -92 120 -113 0 -5 -18 -14 -41 -20 -38 -10 -41 -10 -61 16 -29 36 -76 54
-144 54 l-57 0 5 -70 c4 -53 12 -80 31 -109 26 -39 26 -40 9 -75 l-18 -36 -41
42 c-64 66 -85 124 -87 242 l-1 98 120 -4 c91 -4 131 -10 165 -25z m390 20 c0
-4 -19 -19 -40 -33 -33 -20 -56 -25 -126 -27 -79 -3 -88 -1 -116 22 -16 14
-35 25 -41 26 -7 0 -3 4 8 9 26 10 315 13 315 3z m397 -32 c145 -47 152 -56
51 -68 -48 -6 -60 -12 -118 -68 -36 -34 -85 -77 -108 -96 l-44 -35 -56 19
c-31 10 -75 22 -96 26 -47 8 -53 19 -26 49 24 26 60 28 118 8 l40 -14 53 47
c30 26 63 52 73 58 17 9 12 12 -33 22 -65 14 -122 14 -158 0 -78 -30 -155
-128 -169 -219 -5 -32 -13 -44 -31 -51 -37 -14 -45 -2 -39 50 12 99 40 155
106 214 110 100 249 119 437 58z m3883 23 c107 -25 184 -82 229 -169 23 -45
56 -164 47 -172 -3 -3 -21 -2 -40 1 -33 6 -35 10 -46 61 -23 111 -114 204
-210 213 -60 6 -184 -17 -154 -29 11 -4 45 -30 77 -58 56 -52 56 -52 86 -37
43 23 90 20 118 -6 30 -28 29 -48 -1 -48 -14 0 -56 -11 -95 -25 l-71 -26 -65
55 c-35 31 -82 67 -104 82 -22 14 -42 32 -45 39 -3 8 -26 17 -53 21 -79 11
-80 18 -11 49 140 64 225 76 338 49z m798 -88 c-6 -117 -18 -149 -83 -225
l-44 -51 -22 31 c-18 25 -20 35 -11 48 34 47 50 92 53 146 l4 60 -35 3 c-19 2
-59 1 -88 -3 -42 -5 -59 -13 -86 -41 -34 -35 -35 -35 -75 -23 -23 7 -41 15
-41 19 0 13 86 88 121 106 56 28 79 32 198 33 l114 1 -5 -104z m-1716 44 c62
-10 145 -30 183 -43 l70 -25 -1397 0 c-769 0 -1398 1 -1398 3 0 9 211 64 300
78 14 2 498 5 1077 6 1002 1 1056 0 1165 -19z m-3532 -157 c-1 -35 -15 -52
-48 -58 -128 -23 -245 -128 -274 -244 l-11 -44 -19 22 c-23 30 -23 57 3 125
31 85 137 172 236 195 48 11 113 13 113 4z m4902 -23 c71 -26 145 -92 182
-160 32 -59 38 -122 13 -147 -13 -13 -16 -11 -27 23 -18 57 -67 130 -109 163
-49 39 -128 78 -173 86 -29 6 -39 13 -47 37 l-11 31 58 -6 c31 -3 83 -15 114
-27z m-3015 -63 c1 -29 2 -120 2 -202 l1 -150 33 -14 c17 -8 78 -37 134 -64
l101 -49 -5 -88 -5 -89 108 -170 c60 -94 111 -170 114 -171 3 0 23 28 43 63
21 34 67 107 102 162 l64 100 1 95 0 95 135 68 136 67 -3 203 -3 202 616 -1
616 0 49 -29 c162 -94 338 -240 493 -409 303 -332 508 -680 601 -1020 21 -76
21 -81 23 -1996 l2 -1920 -232 0 -233 0 2 72 c2 40 -1 79 -5 86 -6 9 -50 12
-165 12 l-157 0 3 101 c2 55 1 111 -2 125 l-6 24 -148 0 -147 0 3 108 c3 84 1
111 -10 120 -10 8 -89 12 -253 14 l-238 3 -39 65 c-50 83 -73 106 -145 144
-44 23 -64 42 -83 76 -23 41 -25 55 -24 165 1 135 22 234 74 340 18 38 30 77
30 102 0 68 27 191 74 331 24 74 46 135 48 137 2 2 32 -4 68 -14 84 -24 235
-26 364 -6 126 19 156 19 185 -1 26 -19 25 -44 -11 -154 -32 -101 -64 -156
-102 -179 -30 -19 -35 -28 -38 -64 l-3 -42 -81 4 c-78 3 -83 2 -112 -25 -44
-41 -79 -160 -81 -276 -2 -102 -7 -99 110 -74 99 21 184 69 269 151 41 40 85
76 97 79 36 11 80 70 88 118 20 122 100 360 146 432 33 53 36 85 13 164 -36
124 -51 135 -230 163 -84 13 -154 31 -214 55 -82 33 -89 38 -79 56 25 47 39
119 39 209 0 79 -5 114 -29 192 -28 91 -29 96 -14 138 9 27 17 95 20 174 4
108 0 158 -21 293 -14 90 -26 175 -26 189 0 25 1 25 56 18 70 -8 121 -26 189
-65 62 -35 70 -45 110 -118 20 -36 42 -61 65 -73 58 -32 127 -22 158 23 7 10
25 18 41 18 16 0 36 10 48 23 29 31 83 148 83 181 0 41 -27 97 -69 141 -21 22
-60 69 -86 105 -27 36 -68 88 -91 116 -24 27 -57 81 -74 119 -19 43 -45 81
-66 99 -42 34 -38 47 4 17 31 -22 77 -27 101 -12 10 6 1 15 -33 32 -25 12 -76
51 -112 85 l-65 62 27 42 c24 37 59 138 50 147 -2 2 -36 -33 -76 -77 -40 -44
-75 -78 -78 -75 -3 3 3 41 13 85 10 44 16 82 13 85 -7 8 -115 -47 -165 -84
-54 -39 -92 -105 -100 -172 l-6 -54 48 45 c26 25 67 75 91 112 42 64 61 84 69
76 2 -2 -15 -43 -39 -91 l-42 -87 36 2 c28 2 34 0 32 -13 -1 -10 7 -19 20 -23
23 -5 153 -129 185 -175 9 -14 19 -41 23 -60 4 -26 14 -41 38 -56 19 -12 66
-69 114 -140 44 -66 98 -140 119 -164 26 -29 39 -54 39 -72 0 -39 -50 -138
-73 -145 -13 -4 -37 6 -70 29 -28 20 -55 34 -59 31 -17 -10 -7 -51 17 -74 29
-28 32 -40 7 -40 -32 0 -62 30 -73 76 -14 56 -47 84 -163 141 -49 23 -83 43
-74 43 22 0 140 -40 166 -56 12 -8 22 -11 22 -6 0 12 -123 100 -165 118 -26
11 -52 13 -89 9 -166 -21 -283 125 -248 308 5 26 6 47 2 47 -46 0 -79 -239
-46 -332 16 -44 6 -49 -23 -12 -35 45 -44 91 -38 196 3 54 5 98 3 98 -7 0 -45
-118 -56 -175 -16 -79 -9 -132 44 -304 24 -80 58 -202 76 -271 18 -69 36 -132
41 -140 15 -27 10 64 -10 167 -18 97 -34 223 -27 223 2 0 21 -51 42 -112 38
-109 39 -117 38 -243 0 -90 -5 -144 -15 -175 l-16 -45 -12 45 c-7 24 -49 123
-93 220 -111 244 -144 351 -161 525 -3 28 -4 27 -16 -15 -17 -58 -9 -179 18
-284 12 -44 50 -143 85 -220 95 -209 114 -293 47 -209 -48 60 -86 96 -179 166
-68 53 -179 114 -188 104 -2 -2 14 -17 37 -33 65 -45 205 -200 276 -306 100
-150 130 -261 107 -400 -9 -50 -20 -48 -28 4 -7 43 -55 136 -81 158 -19 16
-19 15 6 -50 32 -80 31 -215 0 -287 -13 -29 -27 -53 -31 -53 -4 0 -10 21 -14
48 -6 48 -45 156 -53 148 -2 -2 3 -28 11 -57 9 -29 16 -77 16 -108 l0 -55 -36
60 c-39 66 -137 170 -201 215 -24 17 -43 27 -43 23 0 -4 28 -43 61 -88 154
-202 182 -363 106 -591 -19 -55 -53 -181 -77 -278 -23 -98 -45 -175 -49 -172
-3 4 -13 25 -22 47 l-16 41 -7 -64 c-3 -35 -11 -106 -16 -158 -6 -52 -11 -151
-11 -220 -1 -106 2 -135 20 -182 31 -81 75 -139 106 -139 37 0 44 -28 13 -55
l-25 -21 41 -24 c36 -20 38 -24 21 -31 -56 -22 -86 -2 -105 71 -26 97 -67 140
-136 140 -28 0 -28 3 -9 96 27 132 36 218 35 354 -4 619 -6 675 -24 710 -32
63 -87 213 -82 226 2 6 -16 33 -41 60 -26 27 -60 78 -76 114 -26 57 -30 80
-35 183 -3 65 -6 116 -8 115 -1 -2 -18 -64 -38 -139 -38 -142 -43 -190 -26
-234 l10 -27 -55 4 c-30 1 -55 0 -55 -4 0 -4 26 -14 57 -23 31 -9 65 -23 76
-30 17 -12 16 -13 -10 -18 -47 -9 -151 2 -211 22 -31 11 -58 18 -60 16 -6 -6
82 -53 143 -77 l60 -23 -65 -3 c-102 -5 -290 47 -430 118 -23 12 -44 19 -46
17 -5 -4 79 -70 129 -102 15 -10 26 -19 24 -21 -6 -6 -121 32 -167 56 -88 44
-209 131 -248 178 -22 26 -51 71 -66 100 -14 28 -28 52 -30 52 -6 0 13 -82 30
-124 17 -43 58 -107 98 -149 26 -28 26 -28 4 -21 -48 14 -96 44 -122 75 -53
62 -95 170 -97 249 l-1 35 -9 -30 c-4 -16 -9 -47 -11 -68 -1 -21 -5 -40 -9
-42 -14 -9 -31 85 -27 158 1 43 0 77 -3 77 -16 0 -101 -212 -134 -335 -74
-281 -133 -350 -513 -604 -223 -149 -290 -201 -310 -243 -10 -18 -29 -38 -43
-45 -20 -10 -35 -38 -72 -130 -129 -326 -142 -390 -112 -525 l17 -78 39 0 c21
0 39 -3 39 -8 0 -4 -20 -18 -45 -31 -25 -13 -44 -29 -42 -35 2 -6 28 -23 58
-38 30 -15 50 -28 44 -29 -52 -7 -112 -2 -122 11 -7 8 -13 45 -13 82 0 41 -6
81 -16 102 -18 36 -54 59 -78 50 -27 -10 -25 13 5 77 42 88 105 254 129 340
26 94 41 113 21 28 -5 -21 -5 -42 -1 -49 4 -6 9 8 12 32 5 43 54 157 92 212
19 29 39 116 26 116 -3 0 -19 -14 -35 -30 -38 -39 -51 -20 -30 42 12 35 29 54
87 98 225 171 273 290 214 531 -44 180 -32 317 40 467 71 147 208 257 374 298
97 25 293 14 480 -26 123 -27 171 -32 315 -35 236 -5 366 16 505 83 88 42 202
149 266 249 66 104 65 102 58 68 -6 -27 -39 -136 -59 -190 -12 -35 84 117 120
191 19 39 60 145 91 235 71 210 103 285 153 356 113 163 219 237 419 293 76
22 82 26 82 50 0 15 10 47 23 73 l24 46 -46 12 c-61 16 -192 20 -265 8 -77
-13 -166 -45 -306 -112 -163 -78 -206 -90 -300 -85 -63 2 -85 8 -110 26 -17
13 -33 22 -35 20 -3 -2 5 -23 17 -47 26 -52 64 -77 132 -87 l51 -7 -30 -13
c-16 -7 -61 -23 -100 -35 -87 -26 -126 -46 -228 -115 -77 -51 -84 -54 -145
-54 -74 0 -78 -12 -16 -47 55 -32 104 -44 195 -47 44 -2 81 -5 84 -7 7 -8
-151 -120 -215 -151 -56 -29 -75 -33 -140 -32 -81 0 -123 15 -172 62 -32 30
-34 25 -12 -47 20 -68 86 -140 157 -172 45 -21 67 -24 174 -24 67 0 119 -3
115 -7 -25 -25 -138 -82 -195 -100 -101 -30 -234 -23 -301 16 l-48 28 7 -23
c25 -80 84 -146 160 -180 101 -45 229 -60 333 -40 48 9 55 0 15 -19 -193 -89
-431 -100 -793 -36 -74 13 -169 27 -210 30 -140 13 -314 -22 -474 -94 -88 -40
-136 -46 -230 -26 -203 42 -389 -4 -523 -128 -68 -63 -117 -134 -188 -276 -69
-137 -120 -214 -177 -265 -58 -52 -136 -80 -204 -72 -24 2 -44 1 -44 -3 0 -15
74 -73 119 -93 49 -22 160 -29 215 -14 27 7 25 4 -25 -53 -37 -42 -71 -70
-115 -91 -56 -28 -70 -31 -131 -27 -57 4 -92 14 -156 46 -20 10 35 -76 70
-110 47 -46 107 -68 187 -68 112 0 219 49 333 152 42 38 45 40 29 13 -62 -100
-177 -199 -273 -235 -30 -11 -91 -24 -136 -28 l-82 -7 47 -28 c158 -94 361
-100 521 -15 176 94 272 267 291 528 3 41 8 111 11 155 15 220 10 202 84 278
59 61 169 151 159 130 -2 -4 -18 -38 -36 -74 -67 -137 -76 -257 -36 -480 18
-101 25 -161 20 -192 -14 -92 -99 -197 -240 -294 -55 -39 -64 -59 -81 -183
-17 -123 -129 -464 -190 -576 -54 -99 -59 -146 -19 -193 15 -18 42 -35 65 -41
22 -6 42 -17 45 -24 2 -6 6 -43 7 -82 l2 -69 -80 0 -80 0 -3 -117 -3 -118
-119 0 c-72 0 -121 -4 -125 -10 -4 -6 -6 -62 -6 -125 l1 -115 -130 0 c-150 0
-145 4 -138 -109 l3 -61 -62 0 c-35 -1 -116 -1 -180 -1 l-118 0 0 1898 c0
1422 3 1914 12 1963 54 299 323 775 602 1065 210 219 470 427 554 444 18 4
300 5 627 4 l595 -4 2 -52z m163 -112 l0 -175 30 0 30 0 0 175 c0 168 1 175
20 175 19 0 20 -7 20 -175 l0 -175 143 0 c153 0 419 -16 452 -27 37 -13 -82
-21 -320 -22 -126 0 -274 2 -327 6 l-98 6 0 187 c0 103 3 190 7 193 3 4 15 7
25 7 17 0 18 -12 18 -175z m3198 53 c2 -89 -18 -208 -43 -258 -29 -58 -100
-122 -154 -140 -37 -12 -43 -11 -61 5 -32 29 -25 50 24 69 87 33 162 144 173
256 4 39 14 64 32 87 14 17 26 32 27 32 0 1 1 -23 2 -51z m-4949 16 c10 -10
-87 -90 -143 -118 -52 -26 -87 -35 -253 -60 -50 -8 -116 -25 -147 -39 -45 -21
-56 -23 -56 -11 0 61 100 110 270 134 112 16 172 36 221 75 34 27 50 34 73 30
16 -3 32 -8 35 -11z m4235 -9 c49 -37 113 -62 196 -74 225 -35 290 -66 314
-148 6 -20 3 -19 -61 13 -56 27 -91 36 -193 49 -142 18 -211 45 -299 115 -50
40 -53 44 -36 56 27 20 42 17 79 -11z m-4967 -85 c5 -102 75 -206 165 -245 24
-11 44 -20 46 -21 2 -1 -4 -16 -13 -34 -14 -27 -20 -31 -43 -25 -85 21 -167
99 -202 192 -22 59 -28 143 -15 202 l7 33 26 -25 c20 -21 27 -38 29 -77z m373
-152 c0 -41 -22 -123 -43 -163 -8 -17 -51 -76 -95 -132 -107 -137 -173 -242
-244 -389 -33 -68 -62 -124 -63 -124 -2 0 -2 120 1 268 3 182 9 295 20 354
l16 87 30 -34 c21 -24 28 -40 23 -55 -6 -18 -24 -302 -20 -308 1 -1 25 35 53
80 28 46 83 119 122 163 82 91 98 123 104 209 4 60 5 61 38 67 57 11 58 11 58
-23z m4945 20 c1 -1 5 -28 8 -59 9 -81 19 -102 101 -203 80 -100 122 -160 155
-221 l21 -40 0 100 c0 55 -5 132 -10 172 l-9 72 31 31 c17 17 31 30 33 28 1
-2 8 -30 15 -63 14 -63 22 -645 10 -645 -4 0 -21 33 -39 73 -55 124 -158 294
-258 426 -111 146 -134 190 -141 279 l-5 65 42 -6 c24 -3 44 -7 46 -9z m-1424
-784 c-93 -31 -109 -40 -237 -124 -119 -78 -144 -88 -265 -99 -67 -6 -97 -14
-133 -35 -56 -33 -61 -26 -7 9 21 15 88 41 149 59 77 23 147 54 241 105 141
79 222 110 286 110 37 0 35 -1 -34 -25z m-261 -308 c0 -2 -39 -26 -87 -52 -48
-27 -138 -86 -201 -131 -63 -46 -119 -83 -125 -83 -6 0 -8 -3 -4 -6 8 -9 90
24 181 73 85 46 81 29 -8 -31 -94 -65 -291 -121 -380 -108 -24 4 -18 8 45 28
80 25 120 48 285 163 110 76 294 168 294 147z m-217 -369 c-39 -62 -71 -100
-116 -139 -116 -100 -210 -139 -334 -137 l-78 1 85 17 c115 23 222 80 345 186
55 46 101 84 103 85 2 0 -1 -6 -5 -13z m-2179 -611 c-174 -64 -268 -159 -389
-388 -53 -99 -78 -135 -129 -183 -35 -33 -79 -69 -97 -79 l-34 -19 36 39 c61
66 94 120 209 345 41 80 87 154 110 178 82 85 184 130 290 130 l65 0 -61 -23z
m-129 -164 c-56 -60 -127 -175 -203 -332 -60 -122 -92 -175 -123 -205 -23 -22
-40 -35 -38 -30 2 6 50 102 105 215 101 204 173 314 236 363 41 32 56 25 23
-11z m-19 -289 c-3 -38 -8 -106 -11 -153 -10 -149 -17 -193 -40 -267 -38 -120
-108 -199 -220 -249 -68 -29 -106 -31 -50 -2 60 32 147 125 187 203 25 49 43
103 58 180 68 350 69 355 76 355 3 0 3 -30 0 -67z m3352 -247 c23 -9 112 -29
196 -44 85 -16 165 -36 178 -44 16 -11 31 -37 43 -77 18 -59 18 -62 0 -81 -18
-20 -59 -27 -69 -11 -3 4 -7 23 -8 41 -3 40 -17 46 -127 54 -90 7 -145 17
-256 43 -88 20 -103 32 -28 21 83 -12 249 -21 242 -14 -4 4 -49 11 -100 17
-52 6 -101 15 -109 20 -11 7 -5 9 20 4 19 -3 71 -8 115 -10 l80 -5 -74 14
c-76 15 -156 41 -178 58 -17 13 -4 41 16 34 9 -2 35 -12 59 -20z m-1739 -211
c111 -39 310 -90 399 -102 89 -12 350 -9 415 6 32 7 62 10 65 6 4 -4 6 -79 5
-168 -1 -89 -2 -242 -2 -340 0 -190 -9 -281 -43 -445 -17 -86 -19 -110 -9
-142 15 -50 53 -80 102 -80 45 0 54 -12 62 -87 l6 -53 -409 0 c-394 0 -410 1
-410 19 0 10 -16 50 -36 89 -28 58 -49 82 -106 129 -63 51 -73 64 -84 107 -11
44 -28 64 -156 190 -207 203 -258 275 -258 363 0 25 9 39 50 73 93 78 233 285
285 423 10 26 19 47 20 47 2 0 49 -16 104 -35z m2061 -252 c-21 -70 -48 -160
-59 -200 -24 -82 -41 -103 -79 -103 -20 0 -39 -14 -75 -55 -55 -62 -87 -70
-145 -35 -18 11 -35 20 -37 20 -3 0 -16 -23 -31 -51 -28 -57 -40 -61 -23 -8
10 28 27 57 65 108 2 1 26 -5 54 -14 l51 -17 34 26 c25 19 36 37 42 69 7 34
14 45 39 56 28 12 36 26 83 161 28 81 51 152 51 158 0 6 4 13 9 17 6 3 8 -6 5
-22 -4 -24 -48 -181 -62 -223 -3 -10 -2 -12 6 -5 5 6 24 57 42 115 56 188 52
177 61 153 5 -14 -5 -63 -31 -150z m-2771 113 c24 -98 7 -181 -58 -273 -69
-99 -51 -156 85 -278 171 -153 294 -298 339 -399 26 -59 33 -66 79 -75 l31 -7
6 -99 c3 -55 8 -107 10 -115 4 -13 -65 -15 -571 -15 l-575 0 -42 75 c-25 44
-63 93 -94 120 -43 38 -52 53 -60 95 -27 144 117 485 262 619 67 62 165 130
359 248 69 42 143 92 165 112 22 19 43 35 46 36 4 0 12 -20 18 -44z m2289
-1401 c89 -4 161 -10 158 -12 -16 -16 -512 -26 -1421 -29 -1695 -4 -1820 -5
-1800 -13 11 -5 283 -11 605 -15 745 -8 1137 -18 1085 -27 -34 -7 -625 -10
-1732 -9 l-273 0 0 59 0 59 1608 -3 c884 -1 1680 -6 1770 -10z m-118 -239
c190 -3 392 -9 450 -13 l105 -8 -80 -7 c-44 -4 -696 -10 -1450 -13 -1296 -5
-2280 -14 -2273 -20 2 -2 224 -6 493 -10 270 -3 510 -8 535 -10 25 -2 189 -5
365 -6 176 -1 311 -5 300 -9 -11 -5 -308 -9 -660 -10 -352 0 -787 -2 -967 -4
l-328 -4 0 59 0 59 238 2 c421 5 2916 0 3272 -6z m-255 -240 c484 -3 896 -8
915 -10 19 -2 79 -6 133 -7 147 -4 128 -19 -25 -20 -73 0 -144 -2 -158 -4 -14
-2 -583 -6 -1265 -10 -682 -3 -1664 -7 -2182 -9 l-943 -5 0 37 0 37 1322 -2
c728 -1 1719 -4 2203 -7z"/>
<path d="M6445 7763 c-39 -10 -155 -95 -205 -151 -63 -70 -142 -229 -170 -339
-30 -121 -24 -120 24 2 71 183 125 272 217 362 75 72 103 93 157 114 34 13 40
18 22 17 -14 0 -34 -3 -45 -5z"/>
<path d="M4366 6069 c-59 -161 -128 -296 -199 -392 -69 -91 -66 -100 8 -28 93
90 142 188 209 415 38 125 27 128 -18 5z"/>
<path d="M6187 5732 c-3 -52 -19 -117 -46 -198 -35 -105 -70 -289 -57 -301 7
-8 87 253 107 346 20 97 25 216 10 225 -4 3 -11 -29 -14 -72z"/>
<path d="M1539 2799 c-129 -20 -210 -115 -209 -246 1 -52 30 -112 75 -151 20
-19 83 -55 139 -81 115 -54 146 -84 146 -142 0 -59 -15 -85 -62 -108 -103 -49
-216 -1 -263 112 -10 25 -22 37 -35 37 -16 0 -19 -5 -15 -27 3 -16 9 -64 15
-107 6 -44 12 -81 14 -83 11 -11 159 -31 212 -28 175 9 264 92 264 247 0 110
-50 169 -215 253 -105 53 -145 91 -145 135 0 69 49 112 129 113 61 1 107 -25
139 -78 16 -26 35 -44 45 -45 17 0 18 7 12 88 -4 48 -9 90 -11 94 -2 3 -35 9
-72 13 -37 3 -78 7 -92 9 -14 1 -46 -1 -71 -5z"/>
<path d="M4920 2799 c-89 -14 -194 -71 -242 -132 -53 -67 -74 -116 -89 -203
-31 -189 63 -376 228 -451 103 -47 285 -47 389 1 151 69 234 225 221 417 -9
147 -81 265 -195 323 -85 43 -209 61 -312 45z m171 -96 c107 -55 160 -171 160
-348 0 -110 -8 -146 -45 -210 -74 -126 -280 -124 -370 2 -52 75 -68 128 -74
245 -6 134 18 228 73 283 62 62 166 73 256 28z"/>
<path d="M3172 2792 c-46 -2 -82 -6 -80 -10 2 -4 10 -19 17 -34 15 -29 14 -34
-158 -483 -71 -186 -84 -214 -118 -242 l-38 -32 129 -3 c127 -3 160 3 112 22
-14 5 -33 21 -42 35 -16 25 -16 30 12 113 l29 87 135 3 136 3 27 -84 c36 -110
35 -120 -10 -149 l-38 -23 87 -3 c49 -1 127 -1 175 0 l88 3 -33 18 c-17 10
-43 34 -55 55 -28 43 -35 60 -207 512 -45 118 -83 215 -84 215 0 0 -38 -1 -84
-3z m52 -322 c25 -69 46 -128 46 -133 0 -4 -45 -7 -100 -7 -55 0 -100 3 -100
7 0 19 96 271 101 265 3 -4 27 -63 53 -132z"/>
<path d="M6013 2792 c-84 -1 -153 -6 -153 -10 1 -4 15 -16 33 -27 37 -24 72
-81 87 -147 11 -45 10 -52 -57 -227 -37 -99 -70 -181 -73 -181 -10 0 -170 484
-170 512 0 18 10 35 33 52 l32 26 -170 0 -170 0 37 -30 c20 -17 47 -46 59 -66
12 -20 77 -190 144 -378 l122 -341 42 -1 c24 -1 44 3 46 10 26 83 164 447 174
458 6 7 31 -55 131 -328 l51 -140 37 0 c20 1 40 6 44 13 8 11 86 231 189 531
53 155 80 206 131 246 l33 26 -127 0 c-71 0 -128 -3 -128 -6 0 -3 14 -17 30
-31 17 -13 30 -32 30 -41 0 -28 -163 -517 -168 -502 -2 8 -34 101 -72 205
-108 301 -107 299 -69 338 16 16 29 32 27 36 -2 3 -72 5 -155 3z"/>
<path d="M1900 2782 c0 -4 14 -16 30 -25 60 -36 61 -46 58 -386 -3 -293 -4
-310 -23 -331 -11 -12 -31 -26 -44 -31 -13 -5 -21 -12 -18 -15 10 -10 322 -5
325 5 2 6 -3 11 -10 11 -8 0 -26 13 -41 28 -27 28 -27 28 -27 185 l0 157 185
0 185 0 0 -157 0 -156 -40 -38 -40 -38 128 -3 c70 -2 145 -1 167 2 l40 6 -37
16 c-20 9 -41 25 -47 36 -7 14 -11 129 -11 336 l0 315 31 36 c17 19 37 35 45
35 8 0 14 5 14 10 0 6 -63 10 -170 10 -93 0 -170 -3 -170 -7 0 -5 13 -15 28
-24 48 -27 62 -73 62 -198 l0 -111 -187 2 -188 3 1 122 c1 133 11 163 60 185
13 6 24 15 24 20 0 4 -74 8 -165 8 -91 0 -165 -4 -165 -8z"/>
<path d="M3695 2747 l45 -44 0 -309 c0 -287 -1 -311 -19 -341 -11 -17 -29 -34
-40 -38 -12 -3 -21 -12 -21 -18 0 -20 483 -6 538 16 171 66 274 231 258 414
-12 148 -84 257 -207 316 -80 38 -157 47 -392 47 l-207 0 45 -43z m433 -68
c112 -57 157 -145 156 -304 -1 -161 -39 -232 -147 -284 -85 -40 -162 -43 -204
-7 l-28 24 -3 307 -3 308 81 -5 c66 -4 92 -11 148 -39z"/>
<path d="M6690 2781 c0 -5 8 -12 18 -15 11 -4 30 -18 43 -32 l24 -26 3 -310
c3 -338 1 -358 -49 -384 -16 -8 -29 -18 -29 -22 0 -4 72 -7 160 -7 88 0 160 1
160 2 0 2 -17 18 -37 37 l-38 34 -5 147 c-3 81 -3 149 -1 151 10 9 172 3 195
-7 14 -7 32 -27 41 -46 9 -19 20 -32 23 -28 11 11 11 215 1 215 -6 0 -20 -11
-32 -25 -20 -22 -30 -25 -124 -27 l-102 -3 -3 110 c-2 61 -2 125 0 144 l3 33
102 -7 c111 -8 141 -19 180 -65 14 -16 30 -30 35 -30 9 0 7 68 -4 138 l-5 32
-279 0 c-167 0 -280 -4 -280 -9z"/>
<path d="M7540 2785 c0 -4 6 -18 14 -33 13 -25 9 -39 -48 -192 -34 -91 -89
-235 -121 -320 -59 -159 -90 -214 -125 -225 -11 -3 -20 -12 -20 -18 0 -9 35
-11 132 -9 l131 3 -34 21 c-57 34 -57 38 -11 166 l27 72 135 0 136 0 28 -85
c32 -97 30 -126 -14 -152 -17 -9 -30 -20 -30 -23 0 -4 212 -4 318 0 16 0 16
20 -1 20 -7 0 -27 15 -44 33 -32 33 -57 92 -223 530 l-83 217 -83 0 c-46 0
-84 -2 -84 -5z m130 -310 c24 -66 45 -126 48 -132 3 -10 -21 -13 -100 -13
l-105 0 51 139 c28 77 54 137 57 133 3 -4 25 -61 49 -127z"/>
<path d="M8150 2772 c52 -35 81 -77 248 -353 l21 -35 -55 -85 c-30 -46 -68
-105 -84 -131 -42 -68 -98 -127 -143 -149 -21 -11 -37 -23 -34 -25 9 -9 257
-9 257 0 0 5 -12 19 -26 32 -33 31 -29 43 52 166 36 54 67 105 70 113 4 8 9
15 13 15 4 0 27 -34 52 -76 24 -41 54 -92 66 -112 30 -49 29 -80 -4 -114 l-27
-28 90 0 c49 -1 126 -2 172 -3 58 -1 82 2 82 10 0 6 -8 14 -18 17 -35 12 -91
83 -191 244 l-100 162 61 93 c110 165 164 233 197 247 17 7 31 16 31 21 0 5
-57 9 -127 9 -115 -1 -126 -2 -109 -15 11 -8 23 -15 27 -15 4 0 10 -9 14 -20
7 -23 -6 -49 -84 -170 l-58 -91 -72 112 c-39 62 -71 123 -71 135 0 13 12 31
28 43 l27 20 -165 0 c-158 0 -164 -1 -140 -17z"/>
<path d="M2250 1580 c0 -4 9 -15 20 -25 19 -17 20 -31 20 -191 0 -163 -1 -175
-20 -186 -35 -22 -22 -28 65 -28 47 0 85 3 85 6 0 3 -9 13 -19 22 -13 12 -21
36 -26 80 l-6 62 43 0 c150 0 229 174 111 243 -26 15 -57 19 -153 22 -66 1
-120 -1 -120 -5z m215 -54 c45 -45 45 -107 -1 -152 -18 -19 -33 -24 -56 -22
l-32 3 1 70 c1 39 2 82 3 98 0 23 4 27 30 27 19 0 40 -9 55 -24z"/>
<path d="M2727 1583 c-4 -3 5 -14 18 -25 25 -19 25 -21 25 -187 0 -155 -2
-169 -20 -186 -11 -10 -20 -22 -20 -27 0 -4 38 -8 85 -8 50 0 85 4 85 10 0 6
-4 10 -9 10 -27 0 -41 34 -41 96 0 63 0 64 28 64 23 0 33 -11 67 -72 46 -82
63 -95 131 -105 l49 -6 -31 35 c-17 19 -47 65 -68 102 -38 68 -38 68 -17 82
29 21 51 67 51 108 0 42 -39 92 -78 100 -40 9 -248 16 -255 9z m210 -48 c13
-9 27 -34 33 -57 20 -71 -17 -118 -90 -118 l-30 0 0 88 c0 49 3 92 7 95 12 12
58 7 80 -8z"/>
<path d="M3375 1569 c-58 -31 -75 -48 -101 -104 -75 -158 32 -318 211 -316 80
0 120 17 166 68 46 51 62 100 57 172 -5 74 -34 128 -87 166 -38 27 -52 30
-124 33 -68 2 -89 -2 -122 -19z m169 -45 c59 -42 93 -168 67 -247 -18 -53 -63
-87 -114 -87 -86 0 -138 62 -152 182 -8 68 16 132 62 161 35 22 99 18 137 -9z"/>
<path d="M3864 1581 c-6 -6 -5 -91 1 -91 2 0 15 11 29 25 19 18 36 25 66 25
l40 0 0 -174 0 -174 -27 -21 -28 -20 93 -1 c94 0 108 5 72 28 -19 11 -20 23
-20 187 l0 175 29 0 c42 0 81 -17 81 -35 0 -8 5 -15 10 -15 6 0 10 22 10 50
l0 49 -176 -2 c-97 -1 -178 -4 -180 -6z"/>
<path d="M4495 1571 c-49 -22 -99 -77 -115 -127 -7 -21 -10 -63 -7 -99 9 -124
94 -198 226 -198 78 0 131 23 178 77 42 47 57 96 50 171 -6 80 -46 143 -110
174 -56 27 -165 29 -222 2z m162 -42 c92 -57 111 -247 31 -314 -28 -24 -39
-27 -85 -23 -62 5 -95 31 -124 93 -23 49 -25 142 -5 190 29 69 117 95 183 54z"/>
<path d="M4980 1538 c0 -54 4 -57 29 -27 11 14 33 23 64 26 l47 6 0 -169 0
-168 -27 -28 -27 -28 92 0 c51 0 92 3 92 6 0 3 -10 14 -22 24 -22 18 -23 24
-23 187 l0 168 37 3 c30 3 43 -2 63 -22 14 -14 27 -26 28 -26 1 0 2 22 3 48
l1 49 -178 -1 -179 -1 0 -47z"/>
<path d="M5460 1583 c0 -1 16 -17 35 -35 19 -18 57 -71 85 -118 47 -80 50 -89
50 -153 0 -59 -3 -71 -25 -93 -14 -14 -25 -27 -25 -29 0 -3 41 -5 90 -5 50 0
90 3 90 6 0 3 -10 14 -22 24 -19 15 -23 30 -26 94 l-4 76 66 100 c36 55 75
105 86 112 11 7 20 15 20 18 0 4 -101 5 -135 1 -5 -1 -2 -8 9 -16 17 -13 17
-17 5 -47 -19 -44 -62 -118 -70 -118 -4 0 -23 32 -44 71 -34 65 -36 72 -21 88
9 10 16 19 16 22 0 2 -41 4 -90 5 -50 0 -90 -1 -90 -3z"/>
<path d="M6027 1582 c-15 -3 -14 -6 8 -24 l25 -19 0 -170 0 -170 -26 -24 -27
-25 97 0 c53 0 96 3 96 6 0 3 -11 15 -25 26 -22 17 -25 27 -25 79 l0 59 38 0
c87 1 162 65 162 140 0 90 -46 119 -196 123 -60 1 -117 1 -127 -1z m209 -53
c8 -6 19 -29 25 -50 20 -66 -21 -129 -83 -129 l-28 0 0 101 0 102 36 -6 c20
-3 42 -11 50 -18z"/>
<path d="M6510 1582 c0 -2 10 -12 22 -21 21 -17 22 -26 22 -191 1 -166 0 -173
-22 -190 -12 -10 -22 -21 -22 -24 0 -3 41 -6 90 -6 50 0 90 3 90 6 0 3 -11 15
-25 26 -25 19 -25 20 -25 188 l0 169 26 20 c15 12 23 22 18 22 -20 4 -174 4
-174 1z"/>
<path d="M6860 1584 c0 -2 11 -14 25 -28 25 -25 25 -28 25 -186 0 -158 0 -161
-25 -186 -14 -14 -25 -27 -25 -29 0 -3 32 -5 70 -5 39 0 70 3 70 6 0 3 -9 13
-20 22 -18 15 -20 31 -23 150 -1 72 0 132 3 131 3 0 67 -71 142 -158 75 -87
144 -158 152 -158 14 0 16 25 16 204 0 192 1 203 20 215 11 7 20 15 20 18 0 3
-29 6 -65 5 -36 0 -65 -1 -65 -3 0 -2 9 -11 21 -20 18 -16 20 -29 22 -150 1
-72 0 -132 -3 -132 -3 1 -23 24 -45 53 -22 29 -79 97 -126 152 l-86 101 -51 0
c-29 0 -52 -1 -52 -2z"/>
<path d="M7626 1583 c-39 -10 -96 -54 -122 -92 -31 -48 -43 -139 -24 -197 15
-47 62 -99 114 -126 30 -15 58 -20 122 -20 46 0 96 3 112 6 28 7 28 7 28 82
-1 67 2 78 22 94 12 10 22 20 22 22 0 1 -41 2 -90 0 l-91 -3 26 -20 c22 -18
25 -28 25 -80 l0 -59 -40 0 c-51 0 -92 21 -124 63 -51 66 -59 196 -15 251 25
32 80 50 136 43 36 -4 54 -13 90 -48 l44 -44 -3 60 c-2 50 -6 61 -23 67 -23 7
-181 8 -209 1z"/>
</g>
</svg>
